<?xml version="1.0" encoding="UTF-8"?>
<svg width="400px" height="400px" viewBox="0 0 400 400" version="1.1" xmlns="http://www.w3.org/2000/svg" xmlns:xlink="http://www.w3.org/1999/xlink">
    <!-- Generator: Sketch 64 (93537) - https://sketch.com -->
    <title>loho</title>
    <desc>Created with Sketch.</desc>
    <g id="页面-1" stroke="none" stroke-width="1" fill="none" fill-rule="evenodd">
        <path d="M200,0 C310.45695,0 400,89.54305 400,200 C400,310.45695 310.45695,400 200,400 C89.54305,400 0,310.45695 0,200 C0,89.54305 89.54305,0 200,0 Z M142.4,146.14 C134.99,146.14 134.99,146.14 127.645,149.195 C120.3,152.25 120.3,152.25 114.515,157.125 C108.73,162 108.73,162 105.155,168.24 C101.58,174.48 101.58,174.48 101.58,180.98 C101.58,193.2 101.58,193.2 113.28,193.2 C117.18,193.2 117.18,193.2 120.3,191.575 C123.42,189.95 123.42,189.95 125.825,187.61 C128.23,185.27 128.23,185.27 129.855,182.735 C131.332273,180.430455 131.332273,180.430455 132.218636,178.60938 L132.39,178.25 L131.35,177.86 C128.88,182.67 128.88,182.67 125.37,186.245 C121.86,189.82 121.86,189.82 116.4,189.82 C112.63,189.82 112.63,189.82 110.875,186.96 C109.12,184.1 109.12,184.1 109.12,179.68 C109.12,172.79 109.12,172.79 112.045,167.005 C114.97,161.22 114.97,161.22 119.325,157.06 C123.68,152.9 123.68,152.9 128.62,150.56 C133.56,148.22 133.56,148.22 137.46,148.22 C142.53,148.22 142.53,148.22 144.805,150.885 C147.08,153.55 147.08,153.55 147.08,157.06 C147.08,161.61 147.08,161.61 144.285,167.46 C141.49,173.31 141.49,173.31 137.265,179.81 C133.04,186.31 133.04,186.31 128.1,193.135 C123.16,199.96 123.16,199.96 118.935,206.59 C114.71,213.22 114.71,213.22 111.915,219.2 C109.12,225.18 109.12,225.18 109.12,229.99 C109.12,234.93 109.12,234.93 111.915,238.115 C114.71,241.3 114.71,241.3 120.69,241.3 C127.45,241.3 127.45,241.3 133.235,238.96 C139.02,236.62 139.02,236.62 144.09,232.915 C149.16,229.21 149.16,229.21 153.515,224.725 C157.325625,220.800625 157.325625,220.800625 160.787891,216.926016 L161.77,215.82 L162.03,216.08 C153.71,228.3 153.71,228.3 146.43,239.675 C139.15,251.05 139.15,251.05 132,259.695 C124.85,268.34 124.85,268.34 117.44,273.54 C110.03,278.74 110.03,278.74 101.32,278.74 C95.21,278.74 95.21,278.74 91.115,274.515 C87.02,270.29 87.02,270.29 87.02,262.36 C87.02,259.24 87.02,259.24 87.995,256.51 C88.97,253.78 88.97,253.78 90.595,251.635 C92.22,249.49 92.22,249.49 94.495,248.255 C96.77,247.02 96.77,247.02 99.24,247.02 C101.06,247.02 101.06,247.02 102.685,247.41 C103.985,247.722 103.985,247.722 105.1602,248.1172 L105.74,248.32 L106,247.15 C102.62,245.98 102.62,245.98 99.11,245.2 C95.6,244.42 95.6,244.42 91.96,244.42 C88.45,244.42 88.45,244.42 84.81,245.525 C81.17,246.63 81.17,246.63 78.18,248.71 C75.19,250.79 75.19,250.79 73.305,253.975 C71.42,257.16 71.42,257.16 71.42,261.19 C71.42,266.13 71.42,266.13 73.695,269.705 C75.97,273.28 75.97,273.28 80,275.62 C84.03,277.96 84.03,277.96 89.49,279.13 C94.95,280.3 94.95,280.3 101.32,280.3 C108.34,280.3 108.34,280.3 116.01,278.35 C123.68,276.4 123.68,276.4 131.35,272.305 C139.02,268.21 139.02,268.21 146.235,261.775 C153.45,255.34 153.45,255.34 159.43,246.37 C167.88,233.89 167.88,233.89 176.07,221.085 C184.26,208.28 184.26,208.28 192.06,195.93 C199.86,183.58 199.86,183.58 207.205,172.075 C214.090937,161.289062 214.090937,161.289062 220.576973,152.045605 L221.44,150.82 L201.81,151.6 L173.47,197.23 C168.01,205.94 168.01,205.94 161.965,213.285 C155.92,220.63 155.92,220.63 150.005,226.025 C144.09,231.42 144.09,231.42 138.76,234.41 C133.43,237.4 133.43,237.4 129.53,237.4 C124.72,237.4 124.72,237.4 124.72,232.46 C124.72,229.99 124.72,229.99 125.955,226.675 C127.19,223.36 127.19,223.36 129.14,219.655 C131.09,215.95 131.09,215.95 133.56,212.05 C136.03,208.15 136.03,208.15 138.37,204.575 C140.71,201 140.71,201 142.79,198.01 C144.87,195.02 144.87,195.02 146.17,193.07 C148.38,189.69 148.38,189.69 151.045,185.79 C153.71,181.89 153.71,181.89 156.05,177.795 C158.39,173.7 158.39,173.7 160.015,169.54 C161.64,165.38 161.64,165.38 161.64,161.61 C161.64,157.32 161.64,157.32 160.145,154.395 C158.65,151.47 158.65,151.47 156.05,149.65 C153.45,147.83 153.45,147.83 149.94,146.985 C146.43,146.14 146.43,146.14 142.4,146.14 Z M328.3,144.58 C327,144.58 327,144.58 325.05,144.97 C323.1,145.36 323.1,145.36 320.955,145.88 C318.81,146.4 318.81,146.4 316.665,146.79 C314.52,147.18 314.52,147.18 312.83,147.18 C308.93,147.18 308.93,147.18 302.495,147.31 C296.06,147.44 296.06,147.44 288.26,147.96 C280.46,148.48 280.46,148.48 271.75,149.52 C263.04,150.56 263.04,150.56 254.59,152.315 C246.14,154.07 246.14,154.07 238.47,156.735 C230.8,159.4 230.8,159.4 224.885,163.235 C218.97,167.07 218.97,167.07 215.525,172.14 C212.08,177.21 212.08,177.21 212.08,183.71 C212.08,191.51 212.08,191.51 216.89,195.995 C221.7,200.48 221.7,200.48 229.37,200.48 C235.35,200.48 235.35,200.48 240.29,198.53 C245.23,196.58 245.23,196.58 248.74,193.525 C252.25,190.47 252.25,190.47 254.135,186.635 C256.02,182.8 256.02,182.8 256.02,179.16 C256.02,175.65 256.02,175.65 254.98,173.31 C254.044,171.204 254.044,171.204 252.8974,169.7298 L252.64,169.41 L251.47,169.93 C254.46,173.96 254.46,173.96 254.46,178.9 C254.46,181.76 254.46,181.76 253.095,184.815 C251.73,187.87 251.73,187.87 249.325,190.275 C246.92,192.68 246.92,192.68 243.67,194.24 C240.42,195.8 240.42,195.8 236.78,195.8 C231.84,195.8 231.84,195.8 228.59,192.68 C225.34,189.56 225.34,189.56 225.34,184.49 C225.34,178.25 225.34,178.25 229.76,171.88 C234.18,165.51 234.18,165.51 244.385,160.44 C254.59,155.37 254.59,155.37 271.23,152.12 C287.491818,148.943864 287.491818,148.943864 311.327278,148.747521 L312.44,148.74 L312.44,149 C306.72,150.04 306.72,150.04 300.155,152.445 C293.59,154.85 293.59,154.85 286.895,159.075 C280.2,163.3 280.2,163.3 273.895,169.67 C267.59,176.04 267.59,176.04 262.39,185.01 C255.63,196.71 255.63,196.71 250.105,206.655 C244.58,216.6 244.58,216.6 239.185,223.815 C233.79,231.03 233.79,231.03 227.94,235.19 C222.09,239.35 222.09,239.35 214.42,239.48 C210.13,239.61 210.13,239.61 207.465,237.27 C204.8,234.93 204.8,234.93 204.8,230.9 C204.8,230.38 204.8,230.38 204.865,230.12 C204.93,229.86 204.93,229.86 204.93,229.6 C207.4,228.95 207.4,228.95 208.44,227.065 C209.48,225.18 209.48,225.18 209.48,222.71 C209.48,219.46 209.48,219.46 207.01,217.705 C204.54,215.95 204.54,215.95 201.55,215.95 C197,215.95 197,215.95 194.66,218.875 C192.32,221.8 192.32,221.8 192.32,225.96 C192.32,229.34 192.32,229.34 193.88,232.135 C195.44,234.93 195.44,234.93 198.235,236.88 C201.03,238.83 201.03,238.83 204.865,239.935 C208.7,241.04 208.7,241.04 213.25,241.04 C224.95,241.04 224.95,241.04 233.855,237.725 C242.76,234.41 242.76,234.41 249.78,228.82 C256.8,223.23 256.8,223.23 262.195,215.95 C267.59,208.67 267.59,208.67 272.205,200.805 C276.82,192.94 276.82,192.94 280.98,185.075 C285.14,177.21 285.14,177.21 289.69,170.45 C293.98,163.95 293.98,163.95 298.465,159.725 C302.95,155.5 302.95,155.5 306.85,153.03 C310.75,150.56 310.75,150.56 313.805,149.65 C316.669063,148.796875 316.669063,148.796875 318.104902,148.743555 L318.29,148.74 L318.42,148.74 C320.76,148.74 320.76,148.74 322.84,148.87 C324.92,149 324.92,149 326.48,149 C328.43,149 328.43,149 330.315,148.545 C332.2,148.09 332.2,148.09 332.2,146.92 C332.2,144.58 332.2,144.58 328.3,144.58 Z M354.95,146.14 C350.53,146.14 350.53,146.14 345.59,147.245 C340.65,148.35 340.65,148.35 335.71,150.885 C330.77,153.42 330.77,153.42 325.83,157.645 C320.89,161.87 320.89,161.87 316.21,168.11 C311.14,175 311.14,175 306.98,179.29 C302.82,183.58 302.82,183.58 298.855,185.985 C294.89,188.39 294.89,188.39 290.665,189.235 C286.44,190.08 286.44,190.08 281.11,190.08 C279.68,190.08 279.68,190.08 279.68,190.86 C279.68,191.38 279.68,191.38 280.265,191.51 C280.85,191.64 280.85,191.64 281.63,191.64 C285.4,191.64 285.4,191.64 287.61,193.265 C289.82,194.89 289.82,194.89 289.82,198.53 C289.82,201.39 289.82,201.39 288.065,205.095 C286.31,208.8 286.31,208.8 284.165,212.83 C282.02,216.86 282.02,216.86 280.2,220.955 C278.38,225.05 278.38,225.05 278.38,228.82 C278.38,234.93 278.38,234.93 281.89,237.985 C285.4,241.04 285.4,241.04 291.51,241.04 C299.44,241.04 299.44,241.04 305.485,237.855 C311.53,234.67 311.53,234.67 317.64,228.69 C322.58,223.75 322.58,223.75 327.13,218.095 C331.03,213.247857 331.03,213.247857 334.643469,208.257449 L335.84,206.59 L334.67,205.68 C331.29,210.23 331.29,210.23 327.195,215.56 C323.1,220.89 323.1,220.89 318.68,225.44 C313.35,231.03 313.35,231.03 308.67,234.085 C303.99,237.14 303.99,237.14 300.35,237.14 C298.14,237.14 298.14,237.14 297.1,235.905 C296.06,234.67 296.06,234.67 296.06,232.46 C296.06,230.51 296.06,230.51 297.035,227.845 C298.01,225.18 298.01,225.18 299.18,222.255 C300.35,219.33 300.35,219.33 301.325,216.34 C302.3,213.35 302.3,213.35 302.3,210.62 C302.3,206.85 302.3,206.85 301,203.99 C299.7,201.13 299.7,201.13 297.555,198.855 C295.41,196.58 295.41,196.58 292.68,194.89 C290.405,193.481667 290.405,193.481667 287.949444,192.163611 L286.96,191.64 L286.96,191.38 C295.41,190.6 295.41,190.6 301.845,189.495 C308.28,188.39 308.28,188.39 313.48,186.375 C318.68,184.36 318.68,184.36 322.97,181.175 C327.26,177.99 327.26,177.99 331.55,173.05 C335.19,168.76 335.19,168.76 338.05,164.275 C340.91,159.79 340.91,159.79 343.38,156.085 C345.85,152.38 345.85,152.38 348.19,150.04 C350.53,147.7 350.53,147.7 353.26,147.7 C357.68,147.7 357.68,147.7 357.68,154.85 C357.68,157.97 357.68,157.97 356.575,161.35 C355.47,164.73 355.47,164.73 354.04,167.72 C356.51,167.72 356.51,167.72 359.175,167.005 C361.84,166.29 361.84,166.29 364.05,164.925 C366.26,163.56 366.26,163.56 367.69,161.35 C369.12,159.14 369.12,159.14 369.12,156.28 C369.12,151.21 369.12,151.21 365.025,148.675 C360.93,146.14 360.93,146.14 354.95,146.14 Z" id="loho" fill="#51BBFF"></path>
    </g>
</svg>